<svg id="visual" viewBox="0 0 1920 1080" width="100%" height="100%" xmlns="http://www.w3.org/2000/svg" xmlns:xlink="http://www.w3.org/1999/xlink" version="1.1"><rect x="0" y="0" width="1920" height="1080" fill="#ededed"></rect><defs><linearGradient id="grad1_0" x1="43.8%" y1="0%" x2="100%" y2="100%"><stop offset="14.444444444444446%" stop-color="#ededed" stop-opacity="1"></stop><stop offset="85.55555555555554%" stop-color="#ededed" stop-opacity="1"></stop></linearGradient></defs><defs><linearGradient id="grad2_0" x1="0%" y1="0%" x2="56.3%" y2="100%"><stop offset="14.444444444444446%" stop-color="#ededed" stop-opacity="1"></stop><stop offset="85.55555555555554%" stop-color="#ededed" stop-opacity="1"></stop></linearGradient></defs><g transform="translate(1920, 0)"><path d="M0 486C-80.8 466.9 -161.6 447.7 -236.5 409.6C-311.4 371.5 -380.3 314.4 -420.9 243C-461.5 171.6 -473.7 85.8 -486 0L0 0Z" fill="#FBAE3C"></path></g><g transform="translate(0, 1080)"><path d="M0 -486C78.7 -463.2 157.4 -440.3 232.5 -402.7C307.6 -365.1 379.2 -312.6 420.9 -243C462.5 -173.4 474.3 -86.7 486 0L0 0Z" fill="#FBAE3C"></path></g></svg>