<svg id="visual" viewBox="0 0 400 800" width="400" height="800" xmlns="http://www.w3.org/2000/svg" xmlns:xlink="http://www.w3.org/1999/xlink" version="1.1"><rect x="0" y="0" width="400" height="800" fill="#ededed"></rect><defs><linearGradient id="grad1_0" x1="0%" y1="0%" x2="100%" y2="100%"><stop offset="30%" stop-color="#ededed" stop-opacity="1"></stop><stop offset="70%" stop-color="#ededed" stop-opacity="1"></stop></linearGradient></defs><defs><linearGradient id="grad2_0" x1="0%" y1="0%" x2="100%" y2="100%"><stop offset="30%" stop-color="#ededed" stop-opacity="1"></stop><stop offset="70%" stop-color="#ededed" stop-opacity="1"></stop></linearGradient></defs><g transform="translate(400, 0)"><path d="M0 180C-32 175.6 -64 171.2 -90 155.9C-116 140.6 -135.8 114.3 -149.8 86.5C-163.8 58.7 -171.9 29.3 -180 0L0 0Z" fill="#FBAE3C"></path></g><g transform="translate(0, 800)"><path d="M0 -180C32.3 -175.7 64.5 -171.5 90 -155.9C115.5 -140.3 134.2 -113.4 148.1 -85.5C162 -57.6 171 -28.8 180 0L0 0Z" fill="#FBAE3C"></path></g></svg>